inDegrees=no
num_controls=7
num_derivatives=13
num_iterations=103
num_multipliers=7
num_parameters=0
num_slacks=7
num_states=26
objective=5.175939
objective_accelerations=0.540692
objective_balance=0.032875
objective_effort=0.311521
objective_height=4.205938
objective_ligament=0.084913
solver_duration=1147.332608
status=Solve_Succeeded
success=true
DataType=double
version=3
OpenSimVersion=4.4-2022-07-23-0e9fedc
endheader
time	/jointset/ground_pelvis/pelvis_tilt/value	/jointset/ground_pelvis/pelvis_tx/value	/jointset/ground_pelvis/pelvis_ty/value	/jointset/hip_l/hip_flexion_l/value	/jointset/hip_l/hip_adduction_l/value	/jointset/hip_l/hip_rotation_l/value	/jointset/back/lumbar_extension/value	/jointset/patellofemoral_l/patellar_flexion_l/value	/jointset/knee_l/knee_flexion_l/value	/jointset/knee_l/knee_adduction_l/value	/jointset/knee_l/knee_rotation_l/value	/jointset/ankle_l/ankle_angle_l/value	/jointset/subtalar_l/subtalar_angle_l/value	/jointset/ground_pelvis/pelvis_tilt/speed	/jointset/ground_pelvis/pelvis_tx/speed	/jointset/ground_pelvis/pelvis_ty/speed	/jointset/hip_l/hip_flexion_l/speed	/jointset/hip_l/hip_adduction_l/speed	/jointset/hip_l/hip_rotation_l/speed	/jointset/back/lumbar_extension/speed	/jointset/patellofemoral_l/patellar_flexion_l/speed	/jointset/knee_l/knee_flexion_l/speed	/jointset/knee_l/knee_adduction_l/speed	/jointset/knee_l/knee_rotation_l/speed	/jointset/ankle_l/ankle_angle_l/speed	/jointset/subtalar_l/subtalar_angle_l/speed	/forceset/tau_hip_flexion_l	/forceset/tau_hip_adduction_l	/forceset/tau_hip_rotation_l	/forceset/tau_knee_flexion_l	/forceset/tau_ankle_angle_l	/forceset/tau_subtalar_angle_l	/forceset/tau_lumbar_extension	lambda_cid13_p0	lambda_cid13_p1	lambda_cid13_p2	lambda_cid13_p3	lambda_cid13_p4	lambda_cid13_p5	lambda_cid14_p0	/jointset/ground_pelvis/pelvis_tilt/accel	/jointset/ground_pelvis/pelvis_tx/accel	/jointset/ground_pelvis/pelvis_ty/accel	/jointset/hip_l/hip_flexion_l/accel	/jointset/hip_l/hip_adduction_l/accel	/jointset/hip_l/hip_rotation_l/accel	/jointset/back/lumbar_extension/accel	/jointset/patellofemoral_l/patellar_flexion_l/accel	/jointset/knee_l/knee_flexion_l/accel	/jointset/knee_l/knee_adduction_l/accel	/jointset/knee_l/knee_rotation_l/accel	/jointset/ankle_l/ankle_angle_l/accel	/jointset/subtalar_l/subtalar_angle_l/accel	gamma_cid13_p0	gamma_cid13_p1	gamma_cid13_p2	gamma_cid13_p3	gamma_cid13_p4	gamma_cid13_p5	gamma_cid14_p0
1	-0.7200070742862611	-0.1811733528246106	0.6204845790512458	1.849539827243764	-0.4671214154257912	-0.1347158229838746	-0.2617855865756432	0.9817397906525727	0.9817397906525536	-0.1612841578131462	-0.1745193199263618	-0.08670333970699247	-0.1608537840426446	-0.02129138350051682	0.009954367602737683	0.004955174646743856	-0.0004817861311880972	-0.001565968598693767	0.001077275283817064	-4.150685812888915e-05	-0.005450129782576127	-0.005450129782575603	-0.006551149817402872	-0.0001178964996072048	0.01548448873520622	0.005280321653642763	-0.4083735557313231	0.01680532588100177	-0.003748317802218373	-0.1900487186915538	0.1670472173931348	0.08195137160940891	0.3305425663252483	12.31317138069344	-38.45031752751264	6.596984181248811	-7.624500522513316	-633.8118235789751	-48.06629617170249	-17.51553246258023	2.418313456792124	0.6999295334339087	1.618801689403595	-6.734925447230752	0.2358276500553756	-1.754674035253953	-0.02789629788180912	-3.706574352651134	-3.706574352651139	-0.1168537694562445	-0.01166622929984324	0.2238854416640067	0.3555049270992949	7.751927918995544e-10	4.228817375786442e-09	-2.522756145486735e-09	2.333691378964174e-09	-2.819090304912238e-09	5.07266570855305e-09	7.868300404907452e-10
1.01	-0.7201003328589647	-0.1810389048631048	0.6206149098718974	1.849199894646703	-0.46712457833348	-0.1347927083815829	-0.2617860192460355	0.9814999595805994	0.9814999595806001	-0.1613542762502262	-0.174520367348486	-0.08653725628467837	-0.1607824811194046	0.002642549133086256	0.01693868394984628	0.0211066943287025	-0.06749913517185739	0.0009344566136823292	-0.01644983042016269	-4.464911169514532e-05	-0.04250787368948301	-0.04250787368948293	-0.007471900861794046	-9.094690987160015e-05	0.01773333746354958	0.008981987474516229	-0.4082511324062973	0.01689737532691238	-0.003729851086180774	-0.1899449698946977	0.1668980590637776	0.08191460229688587	0.3304628627780094	12.27770055591329	-38.43265769488545	6.599331307652355	-7.690122525624665	-633.6678560052537	-48.06499350284349	-17.52689325980004	2.381364665936847	0.6982012868513109	1.612681372353596	-6.684300579716235	0.2573117448848299	-1.751052576339928	0.01353352725488369	-3.704142055943654	-3.704142055943721	-0.07959182107467275	0.009973683492596438	0.2255559546016243	0.3777559673760237	-1.536238393912183e-09	-3.25662152170884e-09	5.51105318892983e-09	-1.390002716246264e-09	-7.263905633129079e-09	2.003040777039569e-08	-3.536606651563693e-09
1.02	-0.7199541658054742	-0.180834510017827	0.6209066267423197	1.848189956369771	-0.4671027046314565	-0.1350447295841118	-0.2617864719957015	0.9808897975403371	0.980889797540322	-0.1614335834076099	-0.1745211256486054	-0.0863486501018339	-0.1606741098263967	0.02659374173840182	0.02394374435716282	0.0372323846010933	-0.134482922101769	0.003441353348370014	-0.03394988565895132	-4.552271131942359e-05	-0.07951632344572752	-0.07951632344572802	-0.008388893871993037	-6.007210484669295e-05	0.01998904083916932	0.01269399560716104	-0.408128709081467	0.01698942477256978	-0.003711384370246256	-0.1898412210978624	0.1667489007343375	0.08187783298407522	0.3303831592306682	12.23926406688506	-38.41559945875822	6.603054785062501	-7.778120337041392	-633.5913983252233	-48.06998532437977	-17.55506499610281	2.421765451134841	0.7040783454752493	1.613635807489933	-6.728213025079063	0.2371219545178151	-1.749263942215556	-0.02744256709343636	-3.696715522518758	-3.696715522518789	-0.1161021626177537	-0.01088118624171573	0.2252563711188603	0.3575733894534976	-3.639355021356574e-09	-1.064270560804755e-08	1.283529856074459e-08	-5.162154784428098e-09	-1.153675187534515e-08	3.427459691187987e-08	-7.662947796336517e-09
1.03	-0.719568411755957	-0.1805599446047621	0.6213594049329532	1.846510480264342	-0.4670557340956411	-0.1354716394685759	-0.2617869200438998	0.9799098737230255	0.9799098737230217	-0.1615220343625169	-0.1745216307100611	-0.08613750282082827	-0.1605285919252384	0.05055804655277454	0.03097434080806576	0.05331231240826896	-0.2013926216187258	0.00595423324841086	-0.05142915914583358	-4.268927810033807e-05	-0.1164528729082385	-0.1164528729082428	-0.009299052478138612	-4.646804817334962e-05	0.02223672223699193	0.01640970968004781	-0.4076084138051355	0.01711066593860527	-0.003696846316399583	-0.1897398879632951	0.1665597380832438	0.08181047733141661	0.3300365735974861	12.20546127250248	-38.38968765604319	6.60950010614514	-7.868699938877855	-633.2247842265456	-48.11898235568798	-17.60006878524194	2.383908138277141	0.7032988673690017	1.603526912080692	-6.669398714614138	0.2585956144920306	-1.746827105402011	0.01435594612832981	-3.689787209793213	-3.689787209793722	-0.07814092652100231	0.006658760280779963	0.2239702326971342	0.3785897239391172	-5.740345990042113e-09	-1.802777586978263e-08	2.015230348396136e-08	-8.934801321721887e-09	-1.580784333096938e-08	4.851150490111548e-08	-1.178727776205545e-08
1.04	-0.7189429856299624	-0.1802149235126934	0.621972653530607	1.844162497103811	-0.4669835898394916	-0.1360732556986469	-0.2617872978282679	0.9785610519007666	0.9785610519007543	-0.1616195205469132	-0.1745221642192187	-0.085903989484118	-0.1603459130218044	0.07452815703469844	0.0380348801579439	0.06932646600537284	-0.2681843331200923	0.008476097418280853	-0.06889115477181962	-3.146994094612429e-05	-0.1532959244377966	-0.1532959244378041	-0.01019593976063644	-6.576164514659517e-05	0.02446225197813544	0.02012619606223863	-0.4070881185289011	0.01723190710451866	-0.003682308262767243	-0.1896385548287321	0.1663705754321065	0.08174312167861972	0.3296899879642542	12.16864805763842	-38.3643783402284	6.617331884970659	-7.981503217299965	-632.926304450535	-48.17434709610498	-17.66186294053666	2.42292658464525	0.7100669252700955	1.6004809654755	-6.704615421960899	0.2389188084837171	-1.745808370036197	-0.02576538630650207	-3.678015935928243	-3.67801593592818	-0.1134478978881834	-0.01746071697086019	0.2208260397827037	0.3577278513142319	-7.831734036077663e-09	-2.425227939790473e-08	2.858188679214522e-08	-1.200940693614331e-08	-1.977779795326614e-08	6.116081823028274e-08	-1.55429856811602e-08
